Coordinates
version=1
nRows=5
nColumns=42
inDegrees=yes

Units are S.I. units (second, meters, Newtons, ...)
If the header above contains a line with 'inDegrees', this indicates whether rotational values are in degrees (yes) or radians (no).

endheader
time	pelvis_tilt	pelvis_list	pelvis_rotation	pelvis_tx	pelvis_ty	pelvis_tz	hip_flexion_r	hip_adduction_r	hip_rotation_r	knee_angle_r	knee_adduction_r	knee_angle_r_beta	ankle_angle_r	subtalar_angle_r	mtp_angle_r	hip_flexion_l	hip_adduction_l	hip_rotation_l	knee_angle_l	knee_adduction_l	knee_angle_l_beta	ankle_angle_l	subtalar_angle_l	mtp_angle_l	lumbar_extension	lumbar_bending	lumbar_rotation	arm_flex_r	arm_add_r	arm_rot_r	elbow_flex_r	pro_sup_r	wrist_flex_r	wrist_dev_r	arm_flex_l	arm_add_l	arm_rot_l	elbow_flex_l	pro_sup_l	wrist_flex_l	wrist_dev_l
      0.00000000	      5.56422751	      2.03439998	     -5.01379144	     -2.81776699	      0.83608313	      0.11403555	    -18.29599209	      0.21957255	    -21.90410304	     33.50476585	    -12.91692435	      0.58476848	      7.91509739	     22.92964165	     -9.49315618	     26.35732280	      6.45465633	     -3.38894342	     31.13919135	     -4.82720008	      0.54348142	      6.01598165	     -7.03838776	     -9.49315618	    -21.63390313	     -3.91695639	     10.04217785	     13.28020484	    -21.53101914	      9.08983178	     54.34725265	     90.00000001	      0.00000000	      0.00000000	     -8.71492762	    -15.97659813	     32.49283245	     29.61771934	     90.00000001	      0.00000000	      0.00000000
      0.01000000	      5.86629039	      2.55130294	     -4.78889678	     -2.80394802	      0.83785917	      0.11312949	    -17.54543591	     -0.77161073	    -22.77979578	     36.29781691	    -13.59772322	      0.63351642	      4.22079403	     22.13867029	     -9.47264634	     25.48997898	      7.23875346	     -3.10208123	     32.05291574	     -4.54484876	      0.55942891	      6.93495815	     -7.41677068	     -9.47264634	    -21.96998850	     -4.47845650	      9.75265462	     12.74840749	    -21.40231032	      9.17058535	     53.58399329	     90.00000001	      0.00000000	      0.00000000	     -7.79251444	    -16.15596214	     32.58919444	     29.73557444	     90.00000001	      0.00000000	      0.00000000
      0.02000000	      5.86088552	      3.08811851	     -4.44129915	     -2.79046667	      0.83948984	      0.11208535	    -16.10838397	     -1.68037947	    -23.95242779	     39.42151656	    -14.68233585	      0.68803526	      0.17773998	     20.39147536	     -9.44589594	     24.74597661	      8.16286402	     -2.67882489	     32.48701953	     -4.44709172	      0.56700546	      7.74815144	     -7.81711719	     -9.44589594	    -21.95973589	     -4.99593870	      9.40739538	     12.17179470	    -21.23656468	      9.28596601	     52.53504865	     90.00000001	      0.00000000	      0.00000000	     -6.74280164	    -16.36191092	     32.75243906	     29.76430655	     90.00000001	      0.00000000	      0.00000000
      0.03000000	      5.73560639	      3.31579634	     -3.94962973	     -2.77774525	      0.84143684	      0.11085951	    -14.37930817	     -2.09953014	    -24.12157661	     42.84712045	    -15.18846599	      0.74782333	     -3.54376916	     15.65522110	     -9.34473673	     24.02787085	      8.75468046	     -1.83039637	     32.76854786	     -4.16227187	      0.57191905	      8.10370188	     -8.82798751	     -9.34473673	    -21.92917231	     -5.08935447	      9.03730716	     11.74771879	    -21.06757316	      9.39978283	     51.29465218	     90.00000001	      0.00000000	      0.00000000	     -5.51590786	    -16.51481333	     33.19075623	     29.81210911	     90.00000001	      0.00000000	      0.00000000
      0.04000000	      5.76560824	      3.63980107	     -3.59277553	     -2.76481690	      0.84381112	      0.10970508	    -12.67173096	     -2.83360905	    -24.85739549	     46.17527105	    -15.98350238	      0.80591051	     -6.60176217	     12.67581393	     -9.25505083	     22.86411301	      9.44193067	     -1.61865835	     32.49846489	     -4.23647553	      0.56720521	      8.90573822	     -8.77146763	     -9.25505083	    -22.00939981	     -5.29301400	      8.72190508	     11.28669809	    -20.99841321	      9.75253376	     50.11614834	     90.00000001	      0.00000000	      0.00000000	     -4.33975542	    -16.56486846	     32.95102747	     29.97496147	     90.00000001	      0.00000000	      0.00000000
